NotoSerifNyiakengPuachueHmong-Regular.ufo
<glyph name="ta-hmnp" format="2">
	<unicode hex="1E103"/>
	<advance width="654"/>
	<outline>
		<contour>
			<point x="346" y="-10" type="curve" smooth="yes"/>
			<point x="516" y="-10"/>
			<point x="577" y="45"/>
			<point x="577" y="203" type="curve" smooth="yes"/>
			<point x="577" y="521" type="line" smooth="yes"/>
			<point x="577" y="633"/>
			<point x="531" y="690"/>
			<point x="440" y="690" type="curve" smooth="yes"/>
			<point x="351" y="690"/>
			<point x="301" y="636"/>
			<point x="301" y="536" type="curve" smooth="yes"/>
			<point x="301" y="458"/>
			<point x="335" y="405"/>
			<point x="384" y="405" type="curve" smooth="yes"/>
			<point x="422" y="405"/>
			<point x="441" y="434"/>
			<point x="441" y="488" type="curve"/>
			<point x="379" y="488"/>
			<point x="356" y="502"/>
			<point x="356" y="538" type="curve" smooth="yes"/>
			<point x="356" y="573"/>
			<point x="382" y="589"/>
			<point x="438" y="589" type="curve" smooth="yes"/>
			<point x="497" y="589"/>
			<point x="517" y="570"/>
			<point x="517" y="516" type="curve" smooth="yes"/>
			<point x="517" y="209" type="line" smooth="yes"/>
			<point x="517" y="117"/>
			<point x="481" y="91"/>
			<point x="346" y="91" type="curve" smooth="yes"/>
			<point x="211" y="91"/>
			<point x="176" y="116"/>
			<point x="176" y="209" type="curve" smooth="yes"/>
			<point x="176" y="566" type="line" smooth="yes"/>
			<point x="176" y="656"/>
			<point x="160" y="690"/>
			<point x="108" y="690" type="curve" smooth="yes"/>
			<point x="68" y="690"/>
			<point x="42" y="659"/>
			<point x="42" y="586" type="curve"/>
			<point x="97" y="586"/>
			<point x="116" y="577"/>
			<point x="116" y="523" type="curve" smooth="yes"/>
			<point x="116" y="203" type="line" smooth="yes"/>
			<point x="116" y="45"/>
			<point x="177" y="-10"/>
		</contour>
	</outline>
	<anchor name="top" x="336" y="680"/>
</glyph>
<glyph name="ha-hmnp" format="2">
	<unicode hex="1E104"/>
	<advance width="694"/>
	<outline>
		<contour>
			<point x="222" y="-10" type="curve" smooth="yes"/>
			<point x="327" y="-10"/>
			<point x="378" y="48"/>
			<point x="378" y="167" type="curve" smooth="yes"/>
			<point x="378" y="496" type="line" smooth="yes"/>
			<point x="378" y="568"/>
			<point x="398" y="589"/>
			<point x="465" y="589" type="curve" smooth="yes"/>
			<point x="533" y="589"/>
			<point x="552" y="568"/>
			<point x="552" y="493" type="curve" smooth="yes"/>
			<point x="552" y="0" type="line"/>
			<point x="612" y="0" type="line"/>
			<point x="612" y="506" type="line" smooth="yes"/>
			<point x="612" y="633"/>
			<point x="567" y="690"/>
			<point x="468" y="690" type="curve" smooth="yes"/>
			<point x="403" y="690"/>
			<point x="367" y="661"/>
			<point x="350" y="604" type="curve"/>
			<point x="346" y="604" type="line"/>
			<point x="328" y="662"/>
			<point x="284" y="690"/>
			<point x="214" y="690" type="curve" smooth="yes"/>
			<point x="119" y="690"/>
			<point x="65" y="640"/>
			<point x="65" y="539" type="curve" smooth="yes"/>
			<point x="65" y="452"/>
			<point x="101" y="405"/>
			<point x="154" y="405" type="curve" smooth="yes"/>
			<point x="195" y="405"/>
			<point x="214" y="433"/>
			<point x="214" y="488" type="curve"/>
			<point x="145" y="488"/>
			<point x="120" y="500"/>
			<point x="120" y="537" type="curve" smooth="yes"/>
			<point x="120" y="574"/>
			<point x="145" y="589"/>
			<point x="220" y="589" type="curve" smooth="yes"/>
			<point x="295" y="589"/>
			<point x="318" y="568"/>
			<point x="318" y="497" type="curve" smooth="yes"/>
			<point x="318" y="181" type="line" smooth="yes"/>
			<point x="318" y="110"/>
			<point x="292" y="91"/>
			<point x="219" y="91" type="curve" smooth="yes"/>
			<point x="146" y="91"/>
			<point x="120" y="105"/>
			<point x="120" y="144" type="curve" smooth="yes"/>
			<point x="120" y="180"/>
			<point x="145" y="192"/>
			<point x="214" y="192" type="curve"/>
			<point x="214" y="247"/>
			<point x="195" y="275"/>
			<point x="156" y="275" type="curve" smooth="yes"/>
			<point x="101" y="275"/>
			<point x="65" y="228"/>
			<point x="65" y="142" type="curve" smooth="yes"/>
			<point x="65" y="41"/>
			<point x="117" y="-10"/>
		</contour>
	</outline>
	<anchor name="top" x="339" y="680"/>
</glyph>
<glyph name="xa-hmnp" format="2">
	<unicode hex="1E106"/>
	<advance width="685"/>
	<outline>
		<contour>
			<point x="84" y="0" type="line"/>
			<point x="144" y="0" type="line"/>
			<point x="144" y="183" type="line" smooth="yes"/>
			<point x="144" y="231"/>
			<point x="166" y="249"/>
			<point x="230" y="249" type="curve" smooth="yes"/>
			<point x="296" y="249"/>
			<point x="317" y="229"/>
			<point x="317" y="178" type="curve" smooth="yes"/>
			<point x="317" y="148" type="line" smooth="yes"/>
			<point x="317" y="40"/>
			<point x="354" y="-10"/>
			<point x="461" y="-10" type="curve" smooth="yes"/>
			<point x="573" y="-10"/>
			<point x="606" y="47"/>
			<point x="606" y="164" type="curve" smooth="yes"/>
			<point x="606" y="521" type="line" smooth="yes"/>
			<point x="606" y="633"/>
			<point x="560" y="690"/>
			<point x="469" y="690" type="curve" smooth="yes"/>
			<point x="380" y="690"/>
			<point x="330" y="636"/>
			<point x="330" y="536" type="curve" smooth="yes"/>
			<point x="330" y="458"/>
			<point x="364" y="405"/>
			<point x="413" y="405" type="curve" smooth="yes"/>
			<point x="451" y="405"/>
			<point x="470" y="434"/>
			<point x="470" y="488" type="curve"/>
			<point x="408" y="488"/>
			<point x="385" y="502"/>
			<point x="385" y="538" type="curve" smooth="yes"/>
			<point x="385" y="573"/>
			<point x="411" y="589"/>
			<point x="467" y="589" type="curve" smooth="yes"/>
			<point x="526" y="589"/>
			<point x="546" y="570"/>
			<point x="546" y="516" type="curve" smooth="yes"/>
			<point x="546" y="175" type="line" smooth="yes"/>
			<point x="546" y="112"/>
			<point x="530" y="91"/>
			<point x="460" y="91" type="curve" smooth="yes"/>
			<point x="391" y="91"/>
			<point x="375" y="112"/>
			<point x="375" y="175" type="curve" smooth="yes"/>
			<point x="375" y="208" type="line" smooth="yes"/>
			<point x="375" y="308"/>
			<point x="327" y="350"/>
			<point x="252" y="350" type="curve" smooth="yes"/>
			<point x="196" y="350"/>
			<point x="162" y="329"/>
			<point x="147" y="282" type="curve"/>
			<point x="142" y="282" type="line"/>
			<point x="144" y="332"/>
			<point x="144" y="386"/>
			<point x="144" y="421" type="curve" smooth="yes"/>
			<point x="144" y="680" type="line"/>
			<point x="84" y="680" type="line"/>
		</contour>
	</outline>
	<anchor name="top" x="325" y="680"/>
</glyph>
<glyph name="la-hmnp" format="2">
	<unicode hex="1E109"/>
	<advance width="586"/>
	<outline>
		<contour>
			<point x="291" y="-10" type="curve" smooth="yes"/>
			<point x="463" y="-10"/>
			<point x="523" y="34"/>
			<point x="523" y="150" type="curve" smooth="yes"/>
			<point x="523" y="232"/>
			<point x="491" y="276"/>
			<point x="440" y="276" type="curve" smooth="yes"/>
			<point x="398" y="276"/>
			<point x="377" y="248"/>
			<point x="377" y="193" type="curve"/>
			<point x="444" y="193"/>
			<point x="468" y="181"/>
			<point x="468" y="148" type="curve" smooth="yes"/>
			<point x="468" y="105"/>
			<point x="434" y="91"/>
			<point x="293" y="91" type="curve" smooth="yes"/>
			<point x="148" y="91"/>
			<point x="116" y="106"/>
			<point x="116" y="165" type="curve" smooth="yes"/>
			<point x="116" y="223"/>
			<point x="142" y="253"/>
			<point x="289" y="323" type="curve" smooth="yes"/>
			<point x="392" y="372"/>
			<point x="452" y="406"/>
			<point x="480" y="442" type="curve" smooth="yes"/>
			<point x="501" y="470"/>
			<point x="508" y="509"/>
			<point x="508" y="569" type="curve" smooth="yes"/>
			<point x="508" y="680" type="line"/>
			<point x="98" y="680" type="line"/>
			<point x="76" y="620" type="line"/>
			<point x="76" y="582" type="line"/>
			<point x="448" y="582" type="line"/>
			<point x="448" y="560" type="line" smooth="yes"/>
			<point x="448" y="510"/>
			<point x="433" y="495"/>
			<point x="306" y="435" type="curve" smooth="yes"/>
			<point x="173" y="372"/>
			<point x="131" y="343"/>
			<point x="103" y="309" type="curve" smooth="yes"/>
			<point x="73" y="273"/>
			<point x="58" y="225"/>
			<point x="58" y="165" type="curve" smooth="yes"/>
			<point x="58" y="35"/>
			<point x="119" y="-10"/>
		</contour>
	</outline>
	<anchor name="top" x="295" y="680"/>
</glyph>
<glyph name="za-hmnp" format="2">
	<unicode hex="1E10B"/>
	<advance width="634"/>
	<outline>
		<contour>
			<point x="314" y="-10" type="curve" smooth="yes"/>
			<point x="494" y="-10"/>
			<point x="552" y="44"/>
			<point x="552" y="208" type="curve" smooth="yes"/>
			<point x="552" y="680" type="line"/>
			<point x="492" y="680" type="line"/>
			<point x="492" y="572" type="line" smooth="yes"/>
			<point x="492" y="528"/>
			<point x="476" y="509"/>
			<point x="444" y="509" type="curve" smooth="yes"/>
			<point x="406" y="509"/>
			<point x="374" y="541"/>
			<point x="334" y="591" type="curve" smooth="yes"/>
			<point x="293" y="643"/>
			<point x="252" y="690"/>
			<point x="192" y="690" type="curve" smooth="yes"/>
			<point x="129" y="690"/>
			<point x="76" y="643"/>
			<point x="76" y="531" type="curve" smooth="yes"/>
			<point x="76" y="462"/>
			<point x="95" y="419"/>
			<point x="127" y="419" type="curve" smooth="yes"/>
			<point x="131" y="419"/>
			<point x="136" y="420"/>
			<point x="143" y="423" type="curve"/>
			<point x="137" y="443"/>
			<point x="134" y="460"/>
			<point x="134" y="492" type="curve" smooth="yes"/>
			<point x="134" y="545"/>
			<point x="151" y="589"/>
			<point x="189" y="589" type="curve" smooth="yes"/>
			<point x="223" y="589"/>
			<point x="251" y="559"/>
			<point x="286" y="514" type="curve" smooth="yes"/>
			<point x="335" y="450"/>
			<point x="369" y="420"/>
			<point x="416" y="420" type="curve" smooth="yes"/>
			<point x="448" y="420"/>
			<point x="478" y="432"/>
			<point x="489" y="472" type="curve"/>
			<point x="494" y="472" type="line"/>
			<point x="492" y="433"/>
			<point x="492" y="401"/>
			<point x="492" y="368" type="curve" smooth="yes"/>
			<point x="492" y="207" type="line" smooth="yes"/>
			<point x="492" y="114"/>
			<point x="458" y="91"/>
			<point x="314" y="91" type="curve" smooth="yes"/>
			<point x="164" y="91"/>
			<point x="120" y="105"/>
			<point x="120" y="152" type="curve" smooth="yes"/>
			<point x="120" y="175"/>
			<point x="131" y="191"/>
			<point x="152" y="199" type="curve" smooth="yes"/>
			<point x="174" y="207"/>
			<point x="211" y="211"/>
			<point x="277" y="211" type="curve"/>
			<point x="277" y="268"/>
			<point x="251" y="294"/>
			<point x="195" y="294" type="curve" smooth="yes"/>
			<point x="117" y="294"/>
			<point x="65" y="240"/>
			<point x="65" y="159" type="curve" smooth="yes"/>
			<point x="65" y="36"/>
			<point x="132" y="-10"/>
		</contour>
	</outline>
	<anchor name="top" x="311" y="680"/>
</glyph>
<glyph name="ntsa-hmnp" format="2">
	<unicode hex="1E10D"/>
	<advance width="597"/>
	<outline>
		<contour>
			<point x="82" y="0" type="line"/>
			<point x="142" y="0" type="line"/>
			<point x="142" y="39" type="line" smooth="yes"/>
			<point x="142" y="100"/>
			<point x="178" y="127"/>
			<point x="309" y="127" type="curve" smooth="yes"/>
			<point x="442" y="127"/>
			<point x="476" y="104"/>
			<point x="476" y="39" type="curve" smooth="yes"/>
			<point x="476" y="0" type="line"/>
			<point x="536" y="0" type="line"/>
			<point x="536" y="46" type="line" smooth="yes"/>
			<point x="536" y="187"/>
			<point x="457" y="228"/>
			<point x="324" y="228" type="curve" smooth="yes"/>
			<point x="200" y="228"/>
			<point x="165" y="197"/>
			<point x="146" y="139" type="curve"/>
			<point x="140" y="139" type="line"/>
			<point x="142" y="188"/>
			<point x="142" y="209"/>
			<point x="142" y="271" type="curve" smooth="yes"/>
			<point x="142" y="479" type="line" smooth="yes"/>
			<point x="142" y="566"/>
			<point x="177" y="589"/>
			<point x="312" y="589" type="curve" smooth="yes"/>
			<point x="445" y="589"/>
			<point x="475" y="555"/>
			<point x="475" y="474" type="curve" smooth="yes"/>
			<point x="475" y="452"/>
			<point x="473" y="437"/>
			<point x="467" y="418" type="curve"/>
			<point x="474" y="415"/>
			<point x="479" y="414"/>
			<point x="485" y="414" type="curve" smooth="yes"/>
			<point x="514" y="414"/>
			<point x="533" y="452"/>
			<point x="533" y="511" type="curve" smooth="yes"/>
			<point x="533" y="632"/>
			<point x="475" y="690"/>
			<point x="314" y="690" type="curve" smooth="yes"/>
			<point x="143" y="690"/>
			<point x="82" y="647"/>
			<point x="82" y="477" type="curve" smooth="yes"/>
		</contour>
	</outline>
	<anchor name="top" x="308" y="680"/>
</glyph>
<glyph name="ka-hmnp" format="2">
	<unicode hex="1E10E"/>
	<advance width="598"/>
	<outline>
		<contour>
			<point x="302" y="-10" type="curve" smooth="yes"/>
			<point x="468" y="-10"/>
			<point x="521" y="45"/>
			<point x="521" y="203" type="curve" smooth="yes"/>
			<point x="521" y="475" type="line" smooth="yes"/>
			<point x="521" y="632"/>
			<point x="467" y="690"/>
			<point x="318" y="690" type="curve" smooth="yes"/>
			<point x="215" y="690"/>
			<point x="167" y="663"/>
			<point x="147" y="591" type="curve"/>
			<point x="143" y="591" type="line"/>
			<point x="145" y="623"/>
			<point x="145" y="649"/>
			<point x="145" y="668" type="curve" smooth="yes"/>
			<point x="145" y="680" type="line"/>
			<point x="85" y="680" type="line"/>
			<point x="85" y="422" type="line"/>
			<point x="145" y="422" type="line"/>
			<point x="145" y="474" type="line" smooth="yes"/>
			<point x="145" y="560"/>
			<point x="186" y="589"/>
			<point x="302" y="589" type="curve" smooth="yes"/>
			<point x="425" y="589"/>
			<point x="461" y="565"/>
			<point x="461" y="483" type="curve" smooth="yes"/>
			<point x="461" y="208" type="line" smooth="yes"/>
			<point x="461" y="116"/>
			<point x="426" y="91"/>
			<point x="300" y="91" type="curve" smooth="yes"/>
			<point x="170" y="91"/>
			<point x="130" y="119"/>
			<point x="130" y="209" type="curve" smooth="yes"/>
			<point x="130" y="230"/>
			<point x="133" y="246"/>
			<point x="140" y="265" type="curve"/>
			<point x="133" y="268"/>
			<point x="128" y="269"/>
			<point x="122" y="269" type="curve" smooth="yes"/>
			<point x="91" y="269"/>
			<point x="72" y="230"/>
			<point x="72" y="168" type="curve" smooth="yes"/>
			<point x="72" y="40"/>
			<point x="137" y="-10"/>
		</contour>
	</outline>
	<anchor name="top" x="299" y="680"/>
</glyph>
<glyph name="da-hmnp" format="2">
	<unicode hex="1E10F"/>
	<advance width="629"/>
	<outline>
		<contour>
			<point x="296" y="-10" type="curve" smooth="yes"/>
			<point x="397" y="-10"/>
			<point x="443" y="20"/>
			<point x="456" y="92" type="curve"/>
			<point x="460" y="92" type="line"/>
			<point x="469" y="24"/>
			<point x="492" y="-10"/>
			<point x="531" y="-10" type="curve" smooth="yes"/>
			<point x="562" y="-10"/>
			<point x="584" y="24"/>
			<point x="588" y="80" type="curve"/>
			<point x="526" y="92"/>
			<point x="509" y="118"/>
			<point x="509" y="205" type="curve" smooth="yes"/>
			<point x="509" y="263" type="line"/>
			<point x="449" y="263" type="line"/>
			<point x="449" y="205" type="line" smooth="yes"/>
			<point x="449" y="113"/>
			<point x="419" y="91"/>
			<point x="294" y="91" type="curve" smooth="yes"/>
			<point x="178" y="91"/>
			<point x="137" y="122"/>
			<point x="137" y="205" type="curve" smooth="yes"/>
			<point x="137" y="488" type="line" smooth="yes"/>
			<point x="137" y="566"/>
			<point x="174" y="589"/>
			<point x="299" y="589" type="curve" smooth="yes"/>
			<point x="426" y="589"/>
			<point x="465" y="562"/>
			<point x="465" y="474" type="curve" smooth="yes"/>
			<point x="465" y="452"/>
			<point x="463" y="437"/>
			<point x="457" y="418" type="curve"/>
			<point x="464" y="415"/>
			<point x="469" y="414"/>
			<point x="475" y="414" type="curve" smooth="yes"/>
			<point x="505" y="414"/>
			<point x="524" y="452"/>
			<point x="524" y="511" type="curve" smooth="yes"/>
			<point x="524" y="638"/>
			<point x="459" y="690"/>
			<point x="300" y="690" type="curve" smooth="yes"/>
			<point x="127" y="690"/>
			<point x="77" y="643"/>
			<point x="77" y="487" type="curve" smooth="yes"/>
			<point x="77" y="205" type="line" smooth="yes"/>
			<point x="77" y="44"/>
			<point x="137" y="-10"/>
		</contour>
	</outline>
	<anchor name="top" x="296" y="680"/>
</glyph>
<glyph name="nya-hmnp" format="2">
	<unicode hex="1E110"/>
	<advance width="615"/>
	<outline>
		<contour>
			<point x="82" y="0" type="line"/>
			<point x="142" y="0" type="line"/>
			<point x="142" y="73" type="line" smooth="yes"/>
			<point x="142" y="113"/>
			<point x="157" y="123"/>
			<point x="189" y="123" type="curve" smooth="yes"/>
			<point x="224" y="123"/>
			<point x="245" y="107"/>
			<point x="304" y="56" type="curve" smooth="yes"/>
			<point x="359" y="8"/>
			<point x="387" y="-10"/>
			<point x="437" y="-10" type="curve" smooth="yes"/>
			<point x="510" y="-10"/>
			<point x="550" y="40"/>
			<point x="550" y="141" type="curve" smooth="yes"/>
			<point x="550" y="229"/>
			<point x="516" y="275"/>
			<point x="463" y="275" type="curve" smooth="yes"/>
			<point x="422" y="275"/>
			<point x="403" y="247"/>
			<point x="403" y="192" type="curve"/>
			<point x="470" y="192"/>
			<point x="495" y="182"/>
			<point x="495" y="140" type="curve" smooth="yes"/>
			<point x="495" y="106"/>
			<point x="479" y="90"/>
			<point x="444" y="90" type="curve" smooth="yes"/>
			<point x="404" y="90"/>
			<point x="383" y="107"/>
			<point x="327" y="157" type="curve" smooth="yes"/>
			<point x="269" y="209"/>
			<point x="250" y="223"/>
			<point x="212" y="223" type="curve" smooth="yes"/>
			<point x="177" y="223"/>
			<point x="157" y="208"/>
			<point x="146" y="173" type="curve"/>
			<point x="141" y="173" type="line"/>
			<point x="142" y="187"/>
			<point x="142" y="201"/>
			<point x="142" y="274" type="curve" smooth="yes"/>
			<point x="142" y="479" type="line" smooth="yes"/>
			<point x="142" y="566"/>
			<point x="179" y="589"/>
			<point x="314" y="589" type="curve" smooth="yes"/>
			<point x="449" y="589"/>
			<point x="479" y="555"/>
			<point x="479" y="474" type="curve" smooth="yes"/>
			<point x="479" y="452"/>
			<point x="477" y="437"/>
			<point x="471" y="418" type="curve"/>
			<point x="478" y="415"/>
			<point x="483" y="414"/>
			<point x="489" y="414" type="curve" smooth="yes"/>
			<point x="518" y="414"/>
			<point x="537" y="452"/>
			<point x="537" y="511" type="curve" smooth="yes"/>
			<point x="537" y="632"/>
			<point x="479" y="690"/>
			<point x="316" y="690" type="curve" smooth="yes"/>
			<point x="145" y="690"/>
			<point x="82" y="647"/>
			<point x="82" y="477" type="curve" smooth="yes"/>
		</contour>
	</outline>
	<anchor name="top" x="312" y="680"/>
</glyph>
<glyph name="va-hmnp" format="2">
	<unicode hex="1E112"/>
	<advance width="661"/>
	<outline>
		<contour>
			<point x="222" y="-10" type="curve" smooth="yes"/>
			<point x="327" y="-10"/>
			<point x="378" y="48"/>
			<point x="378" y="167" type="curve" smooth="yes"/>
			<point x="378" y="513" type="line" smooth="yes"/>
			<point x="378" y="632"/>
			<point x="328" y="690"/>
			<point x="220" y="690" type="curve" smooth="yes"/>
			<point x="120" y="690"/>
			<point x="65" y="640"/>
			<point x="65" y="539" type="curve" smooth="yes"/>
			<point x="65" y="452"/>
			<point x="101" y="405"/>
			<point x="154" y="405" type="curve" smooth="yes"/>
			<point x="195" y="405"/>
			<point x="214" y="433"/>
			<point x="214" y="488" type="curve"/>
			<point x="145" y="488"/>
			<point x="120" y="500"/>
			<point x="120" y="536" type="curve" smooth="yes"/>
			<point x="120" y="574"/>
			<point x="145" y="589"/>
			<point x="220" y="589" type="curve" smooth="yes"/>
			<point x="295" y="589"/>
			<point x="318" y="568"/>
			<point x="318" y="497" type="curve" smooth="yes"/>
			<point x="318" y="181" type="line" smooth="yes"/>
			<point x="318" y="110"/>
			<point x="292" y="91"/>
			<point x="219" y="91" type="curve" smooth="yes"/>
			<point x="146" y="91"/>
			<point x="120" y="105"/>
			<point x="120" y="144" type="curve" smooth="yes"/>
			<point x="120" y="180"/>
			<point x="145" y="192"/>
			<point x="214" y="192" type="curve"/>
			<point x="214" y="247"/>
			<point x="195" y="275"/>
			<point x="156" y="275" type="curve" smooth="yes"/>
			<point x="101" y="275"/>
			<point x="65" y="228"/>
			<point x="65" y="142" type="curve" smooth="yes"/>
			<point x="65" y="41"/>
			<point x="117" y="-10"/>
		</contour>
		<contour>
			<point x="361" y="294" type="line"/>
			<point x="557" y="294" type="line"/>
			<point x="557" y="392" type="line"/>
			<point x="361" y="392" type="line"/>
		</contour>
		<contour>
			<point x="517" y="0" type="line"/>
			<point x="577" y="0" type="line"/>
			<point x="577" y="680" type="line"/>
			<point x="517" y="680" type="line"/>
		</contour>
	</outline>
	<anchor name="top" x="356" y="680"/>
</glyph>
<glyph name="ntxa-hmnp" format="2">
	<unicode hex="1E113"/>
	<advance width="606"/>
	<outline>
		<contour>
			<point x="303" y="-10" type="curve" smooth="yes"/>
			<point x="483" y="-10"/>
			<point x="544" y="36"/>
			<point x="544" y="153" type="curve" smooth="yes"/>
			<point x="544" y="226"/>
			<point x="511" y="275"/>
			<point x="458" y="275" type="curve" smooth="yes"/>
			<point x="417" y="275"/>
			<point x="395" y="246"/>
			<point x="395" y="192" type="curve"/>
			<point x="465" y="192"/>
			<point x="489" y="180"/>
			<point x="489" y="147" type="curve" smooth="yes"/>
			<point x="489" y="104"/>
			<point x="448" y="91"/>
			<point x="304" y="91" type="curve" smooth="yes"/>
			<point x="156" y="91"/>
			<point x="120" y="102"/>
			<point x="120" y="148" type="curve" smooth="yes"/>
			<point x="120" y="193"/>
			<point x="157" y="213"/>
			<point x="293" y="281" type="curve" smooth="yes"/>
			<point x="415" y="342"/>
			<point x="473" y="375"/>
			<point x="503" y="412" type="curve" smooth="yes"/>
			<point x="528" y="443"/>
			<point x="536" y="480"/>
			<point x="536" y="522" type="curve" smooth="yes"/>
			<point x="536" y="637"/>
			<point x="470" y="690"/>
			<point x="306" y="690" type="curve" smooth="yes"/>
			<point x="147" y="690"/>
			<point x="71" y="642"/>
			<point x="71" y="530" type="curve" smooth="yes"/>
			<point x="71" y="454"/>
			<point x="104" y="405"/>
			<point x="157" y="405" type="curve" smooth="yes"/>
			<point x="198" y="405"/>
			<point x="220" y="433"/>
			<point x="220" y="488" type="curve"/>
			<point x="150" y="488"/>
			<point x="126" y="500"/>
			<point x="126" y="533" type="curve" smooth="yes"/>
			<point x="126" y="576"/>
			<point x="169" y="589"/>
			<point x="298" y="589" type="curve" smooth="yes"/>
			<point x="447" y="589"/>
			<point x="478" y="576"/>
			<point x="478" y="523" type="curve" smooth="yes"/>
			<point x="478" y="478"/>
			<point x="446" y="461"/>
			<point x="318" y="397" type="curve" smooth="yes"/>
			<point x="181" y="329"/>
			<point x="136" y="306"/>
			<point x="102" y="266" type="curve" smooth="yes"/>
			<point x="73" y="232"/>
			<point x="62" y="193"/>
			<point x="62" y="144" type="curve" smooth="yes"/>
			<point x="62" y="37"/>
			<point x="133" y="-10"/>
		</contour>
	</outline>
	<anchor name="top" x="301" y="680"/>
</glyph>
<glyph name="ra-hmnp" format="2">
	<unicode hex="1E116"/>
	<advance width="653"/>
	<outline>
		<contour>
			<point x="341" y="-10" type="curve" smooth="yes"/>
			<point x="517" y="-10"/>
			<point x="576" y="47"/>
			<point x="576" y="203" type="curve" smooth="yes"/>
			<point x="576" y="521" type="line" smooth="yes"/>
			<point x="576" y="633"/>
			<point x="530" y="690"/>
			<point x="439" y="690" type="curve" smooth="yes"/>
			<point x="350" y="690"/>
			<point x="300" y="636"/>
			<point x="300" y="536" type="curve" smooth="yes"/>
			<point x="300" y="458"/>
			<point x="334" y="405"/>
			<point x="383" y="405" type="curve" smooth="yes"/>
			<point x="421" y="405"/>
			<point x="440" y="434"/>
			<point x="440" y="488" type="curve"/>
			<point x="378" y="488"/>
			<point x="355" y="502"/>
			<point x="355" y="538" type="curve" smooth="yes"/>
			<point x="355" y="573"/>
			<point x="381" y="589"/>
			<point x="437" y="589" type="curve" smooth="yes"/>
			<point x="496" y="589"/>
			<point x="516" y="570"/>
			<point x="516" y="516" type="curve" smooth="yes"/>
			<point x="516" y="209" type="line" smooth="yes"/>
			<point x="516" y="114"/>
			<point x="475" y="91"/>
			<point x="338" y="91" type="curve" smooth="yes"/>
			<point x="192" y="91"/>
			<point x="162" y="119"/>
			<point x="162" y="168" type="curve" smooth="yes"/>
			<point x="162" y="225"/>
			<point x="205" y="248"/>
			<point x="268" y="251" type="curve"/>
			<point x="268" y="366" type="line"/>
			<point x="165" y="418"/>
			<point x="108" y="475"/>
			<point x="108" y="539" type="curve" smooth="yes"/>
			<point x="108" y="587"/>
			<point x="135" y="601"/>
			<point x="221" y="601" type="curve"/>
			<point x="221" y="647"/>
			<point x="200" y="690"/>
			<point x="149" y="690" type="curve" smooth="yes"/>
			<point x="90" y="690"/>
			<point x="51" y="647"/>
			<point x="51" y="550" type="curve" smooth="yes"/>
			<point x="51" y="502"/>
			<point x="59" y="463"/>
			<point x="73" y="429" type="curve" smooth="yes"/>
			<point x="95" y="377"/>
			<point x="134" y="336"/>
			<point x="193" y="294" type="curve"/>
			<point x="193" y="288" type="line"/>
			<point x="139" y="267"/>
			<point x="104" y="227"/>
			<point x="104" y="149" type="curve" smooth="yes"/>
			<point x="104" y="36"/>
			<point x="171" y="-10"/>
		</contour>
	</outline>
	<anchor name="top" x="319" y="680"/>
</glyph>
<glyph name="pa-hmnp" format="2">
	<unicode hex="1E11A"/>
	<advance width="598"/>
	<outline>
		<contour>
			<point x="294" y="-10" type="curve" smooth="yes"/>
			<point x="465" y="-10"/>
			<point x="521" y="47"/>
			<point x="521" y="203" type="curve" smooth="yes"/>
			<point x="521" y="482" type="line" smooth="yes"/>
			<point x="521" y="628"/>
			<point x="475" y="680"/>
			<point x="343" y="680" type="curve" smooth="yes"/>
			<point x="90" y="680" type="line"/>
			<point x="68" y="620" type="line"/>
			<point x="68" y="582" type="line"/>
			<point x="229" y="582" type="line"/>
			<point x="231" y="578" type="line"/>
			<point x="175" y="501"/>
			<point x="160" y="458"/>
			<point x="160" y="407" type="curve" smooth="yes"/>
			<point x="160" y="346"/>
			<point x="196" y="306"/>
			<point x="247" y="306" type="curve" smooth="yes"/>
			<point x="291" y="306"/>
			<point x="316" y="338"/>
			<point x="316" y="395" type="curve"/>
			<point x="246" y="395"/>
			<point x="227" y="405"/>
			<point x="227" y="440" type="curve" smooth="yes"/>
			<point x="227" y="470"/>
			<point x="244" y="505"/>
			<point x="296" y="582" type="curve"/>
			<point x="349" y="582" type="line" smooth="yes"/>
			<point x="431" y="582"/>
			<point x="461" y="556"/>
			<point x="461" y="486" type="curve" smooth="yes"/>
			<point x="461" y="209" type="line" smooth="yes"/>
			<point x="461" y="116"/>
			<point x="423" y="91"/>
			<point x="293" y="91" type="curve" smooth="yes"/>
			<point x="159" y="91"/>
			<point x="121" y="120"/>
			<point x="121" y="209" type="curve" smooth="yes"/>
			<point x="121" y="230"/>
			<point x="124" y="246"/>
			<point x="131" y="265" type="curve"/>
			<point x="124" y="268"/>
			<point x="119" y="269"/>
			<point x="113" y="269" type="curve" smooth="yes"/>
			<point x="83" y="269"/>
			<point x="63" y="230"/>
			<point x="63" y="167" type="curve" smooth="yes"/>
			<point x="63" y="40"/>
			<point x="130" y="-10"/>
		</contour>
	</outline>
	<anchor name="top" x="287" y="680"/>
</glyph>
<glyph name="hah-hmnp" format="2">
	<unicode hex="1E11F"/>
	<advance width="651"/>
	<outline>
		<contour>
			<point x="325" y="-10" type="curve" smooth="yes"/>
			<point x="509" y="-10"/>
			<point x="571" y="45"/>
			<point x="571" y="207" type="curve" smooth="yes"/>
			<point x="571" y="506" type="line" smooth="yes"/>
			<point x="571" y="650"/>
			<point x="520" y="690"/>
			<point x="435" y="690" type="curve" smooth="yes"/>
			<point x="375" y="690"/>
			<point x="337" y="664"/>
			<point x="324" y="603" type="curve"/>
			<point x="320" y="603" type="line"/>
			<point x="305" y="664"/>
			<point x="271" y="690"/>
			<point x="203" y="690" type="curve" smooth="yes"/>
			<point x="111" y="690"/>
			<point x="67" y="636"/>
			<point x="67" y="536" type="curve" smooth="yes"/>
			<point x="67" y="458"/>
			<point x="99" y="405"/>
			<point x="146" y="405" type="curve" smooth="yes"/>
			<point x="182" y="405"/>
			<point x="201" y="436"/>
			<point x="201" y="488" type="curve"/>
			<point x="143" y="488"/>
			<point x="122" y="500"/>
			<point x="122" y="535" type="curve" smooth="yes"/>
			<point x="122" y="573"/>
			<point x="146" y="589"/>
			<point x="205" y="589" type="curve" smooth="yes"/>
			<point x="270" y="589"/>
			<point x="292" y="569"/>
			<point x="292" y="504" type="curve" smooth="yes"/>
			<point x="292" y="448" type="line"/>
			<point x="352" y="448" type="line"/>
			<point x="352" y="504" type="line" smooth="yes"/>
			<point x="352" y="568"/>
			<point x="371" y="589"/>
			<point x="429" y="589" type="curve" smooth="yes"/>
			<point x="492" y="589"/>
			<point x="511" y="571"/>
			<point x="511" y="500" type="curve" smooth="yes"/>
			<point x="511" y="206" type="line" smooth="yes"/>
			<point x="511" y="109"/>
			<point x="471" y="91"/>
			<point x="327" y="91" type="curve" smooth="yes"/>
			<point x="159" y="91"/>
			<point x="120" y="106"/>
			<point x="120" y="153" type="curve" smooth="yes"/>
			<point x="120" y="174"/>
			<point x="131" y="190"/>
			<point x="152" y="198" type="curve" smooth="yes"/>
			<point x="178" y="208"/>
			<point x="223" y="210"/>
			<point x="277" y="210" type="curve"/>
			<point x="277" y="267"/>
			<point x="251" y="293"/>
			<point x="195" y="293" type="curve" smooth="yes"/>
			<point x="116" y="293"/>
			<point x="65" y="241"/>
			<point x="65" y="155" type="curve" smooth="yes"/>
			<point x="65" y="31"/>
			<point x="143" y="-10"/>
		</contour>
	</outline>
	<anchor name="top" x="316" y="680"/>
</glyph>
<glyph name="mla-hmnp" format="2">
	<unicode hex="1E120"/>
	<advance width="634"/>
	<outline>
		<contour>
			<point x="210" y="-10" type="curve" smooth="yes"/>
			<point x="270" y="-10"/>
			<point x="308" y="12"/>
			<point x="320" y="81" type="curve"/>
			<point x="326" y="81" type="line"/>
			<point x="337" y="17"/>
			<point x="370" y="-10"/>
			<point x="435" y="-10" type="curve" smooth="yes"/>
			<point x="524" y="-10"/>
			<point x="567" y="43"/>
			<point x="567" y="153" type="curve" smooth="yes"/>
			<point x="567" y="226"/>
			<point x="548" y="269"/>
			<point x="516" y="269" type="curve" smooth="yes"/>
			<point x="512" y="269"/>
			<point x="507" y="268"/>
			<point x="500" y="265" type="curve"/>
			<point x="506" y="245"/>
			<point x="509" y="220"/>
			<point x="509" y="191" type="curve" smooth="yes"/>
			<point x="509" y="118"/>
			<point x="491" y="91"/>
			<point x="431" y="91" type="curve" smooth="yes"/>
			<point x="375" y="91"/>
			<point x="353" y="116"/>
			<point x="353" y="170" type="curve" smooth="yes"/>
			<point x="353" y="263" type="line"/>
			<point x="293" y="263" type="line"/>
			<point x="293" y="170" type="line" smooth="yes"/>
			<point x="293" y="113"/>
			<point x="270" y="91"/>
			<point x="215" y="91" type="curve" smooth="yes"/>
			<point x="157" y="91"/>
			<point x="140" y="113"/>
			<point x="140" y="180" type="curve" smooth="yes"/>
			<point x="140" y="485" type="line" smooth="yes"/>
			<point x="140" y="570"/>
			<point x="174" y="589"/>
			<point x="330" y="589" type="curve" smooth="yes"/>
			<point x="473" y="589"/>
			<point x="507" y="578"/>
			<point x="507" y="534" type="curve" smooth="yes"/>
			<point x="507" y="499"/>
			<point x="485" y="488"/>
			<point x="416" y="488" type="curve"/>
			<point x="416" y="435"/>
			<point x="436" y="405"/>
			<point x="475" y="405" type="curve" smooth="yes"/>
			<point x="526" y="405"/>
			<point x="562" y="454"/>
			<point x="562" y="533" type="curve" smooth="yes"/>
			<point x="562" y="647"/>
			<point x="497" y="690"/>
			<point x="331" y="690" type="curve" smooth="yes"/>
			<point x="133" y="690"/>
			<point x="80" y="641"/>
			<point x="80" y="491" type="curve" smooth="yes"/>
			<point x="80" y="181" type="line" smooth="yes"/>
			<point x="80" y="44"/>
			<point x="114" y="-10"/>
		</contour>
	</outline>
	<anchor name="top" x="321" y="680"/>
</glyph>
<glyph name="pla-hmnp" format="2">
	<unicode hex="1E121"/>
	<advance width="596"/>
	<outline>
		<contour>
			<point x="71" y="0" type="line"/>
			<point x="525" y="0" type="line"/>
			<point x="525" y="220" type="line"/>
			<point x="465" y="220" type="line"/>
			<point x="465" y="98" type="line"/>
			<point x="133" y="98" type="line"/>
			<point x="133" y="129" type="line" smooth="yes"/>
			<point x="133" y="186"/>
			<point x="152" y="195"/>
			<point x="279" y="255" type="curve" smooth="yes"/>
			<point x="402" y="313"/>
			<point x="455" y="346"/>
			<point x="487" y="385" type="curve" smooth="yes"/>
			<point x="516" y="421"/>
			<point x="526" y="466"/>
			<point x="526" y="509" type="curve" smooth="yes"/>
			<point x="526" y="645"/>
			<point x="448" y="690"/>
			<point x="302" y="690" type="curve" smooth="yes"/>
			<point x="146" y="690"/>
			<point x="70" y="642"/>
			<point x="70" y="530" type="curve" smooth="yes"/>
			<point x="70" y="454"/>
			<point x="103" y="405"/>
			<point x="156" y="405" type="curve" smooth="yes"/>
			<point x="197" y="405"/>
			<point x="219" y="433"/>
			<point x="219" y="488" type="curve"/>
			<point x="149" y="488"/>
			<point x="125" y="500"/>
			<point x="125" y="533" type="curve" smooth="yes"/>
			<point x="125" y="576"/>
			<point x="167" y="589"/>
			<point x="302" y="589" type="curve" smooth="yes"/>
			<point x="425" y="589"/>
			<point x="468" y="575"/>
			<point x="468" y="512" type="curve" smooth="yes"/>
			<point x="468" y="469"/>
			<point x="449" y="440"/>
			<point x="296" y="367" type="curve" smooth="yes"/>
			<point x="191" y="317"/>
			<point x="137" y="288"/>
			<point x="106" y="252" type="curve" smooth="yes"/>
			<point x="75" y="215"/>
			<point x="71" y="177"/>
			<point x="71" y="124" type="curve" smooth="yes"/>
		</contour>
	</outline>
	<anchor name="top" x="295" y="680"/>
</glyph>
<glyph name="ga-hmnp" format="2">
	<unicode hex="1E122"/>
	<advance width="584"/>
	<outline>
		<contour>
			<point x="319" y="-10" type="curve" smooth="yes"/>
			<point x="463" y="-10"/>
			<point x="531" y="35"/>
			<point x="531" y="149" type="curve" smooth="yes"/>
			<point x="531" y="228"/>
			<point x="497" y="275"/>
			<point x="443" y="275" type="curve" smooth="yes"/>
			<point x="404" y="275"/>
			<point x="385" y="248"/>
			<point x="385" y="192" type="curve"/>
			<point x="456" y="192"/>
			<point x="476" y="178"/>
			<point x="476" y="148" type="curve" smooth="yes"/>
			<point x="476" y="102"/>
			<point x="423" y="91"/>
			<point x="303" y="91" type="curve" smooth="yes"/>
			<point x="162" y="91"/>
			<point x="124" y="111"/>
			<point x="124" y="174" type="curve" smooth="yes"/>
			<point x="124" y="234"/>
			<point x="156" y="271"/>
			<point x="230" y="314" type="curve" smooth="yes"/>
			<point x="299" y="354"/>
			<point x="378" y="382"/>
			<point x="497" y="404" type="curve"/>
			<point x="497" y="486" type="line"/>
			<point x="323" y="486" type="line" smooth="yes"/>
			<point x="243" y="486"/>
			<point x="205" y="485"/>
			<point x="167" y="482" type="curve"/>
			<point x="167" y="487" type="line"/>
			<point x="328" y="531"/>
			<point x="393" y="574"/>
			<point x="393" y="636" type="curve" smooth="yes"/>
			<point x="393" y="672"/>
			<point x="371" y="694"/>
			<point x="325" y="704" type="curve"/>
			<point x="297" y="615"/>
			<point x="223" y="550"/>
			<point x="76" y="486" type="curve"/>
			<point x="76" y="395" type="line"/>
			<point x="111" y="395" type="line" smooth="yes"/>
			<point x="156" y="395"/>
			<point x="204" y="396"/>
			<point x="270" y="398" type="curve"/>
			<point x="270" y="393" type="line"/>
			<point x="121" y="334"/>
			<point x="63" y="268"/>
			<point x="63" y="162" type="curve" smooth="yes"/>
			<point x="63" y="41"/>
			<point x="121" y="-10"/>
		</contour>
	</outline>
	<anchor name="top" x="292" y="680"/>
</glyph>
<glyph name="rra-hmnp" format="2">
	<unicode hex="1E123"/>
	<advance width="526"/>
	<outline>
		<contour>
			<point x="402" y="-10" type="curve" smooth="yes"/>
			<point x="445" y="-10"/>
			<point x="469" y="20"/>
			<point x="469" y="89" type="curve"/>
			<point x="407" y="89"/>
			<point x="377" y="104"/>
			<point x="377" y="153" type="curve" smooth="yes"/>
			<point x="377" y="180"/>
			<point x="387" y="225"/>
			<point x="401" y="278" type="curve" smooth="yes"/>
			<point x="416" y="333"/>
			<point x="432" y="399"/>
			<point x="432" y="449" type="curve" smooth="yes"/>
			<point x="432" y="545"/>
			<point x="403" y="575"/>
			<point x="305" y="575" type="curve" smooth="yes"/>
			<point x="174" y="575" type="line" smooth="yes"/>
			<point x="117" y="575"/>
			<point x="109" y="583"/>
			<point x="99" y="664" type="curve" smooth="yes"/>
			<point x="97" y="680" type="line"/>
			<point x="52" y="680" type="line"/>
			<point x="52" y="477" type="line"/>
			<point x="287" y="477" type="line" smooth="yes"/>
			<point x="344" y="477"/>
			<point x="366" y="461"/>
			<point x="366" y="414" type="curve" smooth="yes"/>
			<point x="366" y="382"/>
			<point x="356" y="334"/>
			<point x="342" y="283" type="curve" smooth="yes"/>
			<point x="326" y="224"/>
			<point x="311" y="162"/>
			<point x="311" y="115" type="curve" smooth="yes"/>
			<point x="311" y="72"/>
			<point x="319" y="46"/>
			<point x="332" y="25" type="curve" smooth="yes"/>
			<point x="346" y="2"/>
			<point x="368" y="-10"/>
		</contour>
	</outline>
	<anchor name="top" x="238" y="680"/>
</glyph>
<glyph name="i-hmnp" format="2">
	<unicode hex="1E126"/>
	<advance width="490"/>
	<outline>
		<contour>
			<point x="256" y="-10" type="curve" smooth="yes"/>
			<point x="367" y="-10"/>
			<point x="420" y="39"/>
			<point x="420" y="149" type="curve" smooth="yes"/>
			<point x="420" y="224"/>
			<point x="386" y="275"/>
			<point x="334" y="275" type="curve" smooth="yes"/>
			<point x="295" y="275"/>
			<point x="276" y="247"/>
			<point x="276" y="192" type="curve"/>
			<point x="343" y="192"/>
			<point x="365" y="179"/>
			<point x="365" y="145" type="curve" smooth="yes"/>
			<point x="365" y="104"/>
			<point x="337" y="91"/>
			<point x="260" y="91" type="curve" smooth="yes"/>
			<point x="162" y="91"/>
			<point x="140" y="110"/>
			<point x="140" y="180" type="curve" smooth="yes"/>
			<point x="140" y="516" type="line" smooth="yes"/>
			<point x="140" y="573"/>
			<point x="154" y="589"/>
			<point x="209" y="589" type="curve" smooth="yes"/>
			<point x="257" y="589"/>
			<point x="272" y="578"/>
			<point x="286" y="527" type="curve" smooth="yes"/>
			<point x="302" y="470" type="line" smooth="yes"/>
			<point x="315" y="424"/>
			<point x="336" y="401"/>
			<point x="375" y="401" type="curve" smooth="yes"/>
			<point x="419" y="401"/>
			<point x="439" y="433"/>
			<point x="439" y="487" type="curve"/>
			<point x="420" y="487" type="line" smooth="yes"/>
			<point x="371" y="487"/>
			<point x="358" y="499"/>
			<point x="346" y="540" type="curve" smooth="yes"/>
			<point x="329" y="598" type="line" smooth="yes"/>
			<point x="308" y="670"/>
			<point x="273" y="690"/>
			<point x="208" y="690" type="curve" smooth="yes"/>
			<point x="112" y="690"/>
			<point x="80" y="635"/>
			<point x="80" y="516" type="curve" smooth="yes"/>
			<point x="80" y="171" type="line" smooth="yes"/>
			<point x="80" y="46"/>
			<point x="131" y="-10"/>
		</contour>
	</outline>
	<anchor name="top" x="218" y="680"/>
</glyph>
<glyph name="e-hmnp" format="2">
	<unicode hex="1E12A"/>
	<advance width="514"/>
	<outline>
		<contour>
			<point x="144" y="0" type="line"/>
			<point x="204" y="0" type="line"/>
			<point x="204" y="18" type="line" smooth="yes"/>
			<point x="204" y="48"/>
			<point x="211" y="60"/>
			<point x="236" y="60" type="curve" smooth="yes"/>
			<point x="256" y="60"/>
			<point x="276" y="47"/>
			<point x="299" y="31" type="curve" smooth="yes"/>
			<point x="331" y="9"/>
			<point x="360" y="-10"/>
			<point x="401" y="-10" type="curve" smooth="yes"/>
			<point x="450" y="-10"/>
			<point x="476" y="26"/>
			<point x="476" y="82" type="curve" smooth="yes"/>
			<point x="476" y="128"/>
			<point x="462" y="164"/>
			<point x="435" y="164" type="curve" smooth="yes"/>
			<point x="430" y="164"/>
			<point x="425" y="163"/>
			<point x="420" y="161" type="curve"/>
			<point x="424" y="145"/>
			<point x="426" y="133"/>
			<point x="426" y="122" type="curve" smooth="yes"/>
			<point x="426" y="100"/>
			<point x="417" y="89"/>
			<point x="399" y="89" type="curve" smooth="yes"/>
			<point x="378" y="89"/>
			<point x="353" y="105"/>
			<point x="328" y="122" type="curve" smooth="yes"/>
			<point x="299" y="142"/>
			<point x="279" y="155"/>
			<point x="256" y="155" type="curve" smooth="yes"/>
			<point x="229" y="155"/>
			<point x="214" y="141"/>
			<point x="206" y="111" type="curve"/>
			<point x="201" y="111" type="line"/>
			<point x="203" y="152"/>
			<point x="204" y="179"/>
			<point x="204" y="228" type="curve" smooth="yes"/>
			<point x="204" y="315" type="line"/>
			<point x="426" y="315" type="line"/>
			<point x="448" y="375" type="line"/>
			<point x="448" y="413" type="line"/>
			<point x="204" y="413" type="line"/>
			<point x="204" y="680" type="line"/>
			<point x="61" y="680" type="line"/>
			<point x="39" y="620" type="line"/>
			<point x="39" y="582" type="line"/>
			<point x="144" y="582" type="line"/>
		</contour>
	</outline>
	<anchor name="top" x="258" y="680"/>
</glyph>
<glyph name="bSomThw-hmnp" format="2">
	<unicode hex="1E130"/>
	<outline>
		<contour>
			<point x="-272" y="784" type="line"/>
			<point x="-209" y="784" type="line"/>
			<point x="-209" y="993" type="line"/>
			<point x="-272" y="993" type="line"/>
		</contour>
	</outline>
	<anchor name="_top" x="-241" y="680"/>
</glyph>
<glyph name="mSomThw-hmnp" format="2">
	<unicode hex="1E131"/>
	<outline>
		<contour>
			<point x="-398" y="802" type="line"/>
			<point x="-118" y="802" type="line"/>
			<point x="-118" y="869" type="line"/>
			<point x="-398" y="869" type="line"/>
		</contour>
		<contour>
			<point x="-258" y="921" type="curve" smooth="yes"/>
			<point x="-229" y="921"/>
			<point x="-208" y="940"/>
			<point x="-208" y="971" type="curve" smooth="yes"/>
			<point x="-208" y="1002"/>
			<point x="-229" y="1021"/>
			<point x="-258" y="1021" type="curve" smooth="yes"/>
			<point x="-287" y="1021"/>
			<point x="-308" y="1002"/>
			<point x="-308" y="971" type="curve" smooth="yes"/>
			<point x="-308" y="940"/>
			<point x="-287" y="921"/>
		</contour>
	</outline>
	<anchor name="_top" x="-258" y="680"/>
</glyph>
<glyph name="jSomThw-hmnp" format="2">
	<unicode hex="1E132"/>
	<outline>
		<contour>
			<point x="-262" y="778" type="curve" smooth="yes"/>
			<point x="-165" y="778"/>
			<point x="-121" y="830"/>
			<point x="-121" y="922" type="curve"/>
			<point x="-162" y="922" type="line"/>
			<point x="-165" y="870"/>
			<point x="-203" y="854"/>
			<point x="-262" y="854" type="curve" smooth="yes"/>
			<point x="-321" y="854"/>
			<point x="-359" y="870"/>
			<point x="-362" y="922" type="curve"/>
			<point x="-404" y="922" type="line"/>
			<point x="-404" y="830"/>
			<point x="-359" y="778"/>
		</contour>
	</outline>
	<anchor name="_top" x="-263" y="680"/>
</glyph>
<glyph name="gSomThw-hmnp" format="2">
	<unicode hex="1E135"/>
	<outline>
		<contour>
			<point x="-394" y="789" type="curve"/>
			<point x="-353" y="789" type="line"/>
			<point x="-350" y="841"/>
			<point x="-312" y="857"/>
			<point x="-253" y="857" type="curve" smooth="yes"/>
			<point x="-194" y="857"/>
			<point x="-156" y="841"/>
			<point x="-153" y="789" type="curve"/>
			<point x="-111" y="789" type="line"/>
			<point x="-111" y="881"/>
			<point x="-156" y="933"/>
			<point x="-253" y="933" type="curve" smooth="yes"/>
			<point x="-350" y="933"/>
			<point x="-394" y="881"/>
		</contour>
	</outline>
	<anchor name="_top" x="-253" y="680"/>
</glyph>
<glyph name="oov-hmnp" format="2">
	<unicode hex="1E137"/>
	<advance width="452"/>
	<outline>
		<contour>
			<point x="315" y="345" type="line"/>
			<point x="375" y="345" type="line"/>
			<point x="375" y="534" type="line"/>
			<point x="315" y="534" type="line"/>
			<point x="288" y="491"/>
			<point x="252" y="474"/>
			<point x="198" y="474" type="curve" smooth="yes"/>
			<point x="143" y="474"/>
			<point x="119" y="490"/>
			<point x="119" y="526" type="curve" smooth="yes"/>
			<point x="119" y="566"/>
			<point x="166" y="600"/>
			<point x="299" y="600" type="curve" smooth="yes"/>
			<point x="375" y="600" type="line"/>
			<point x="375" y="660"/>
			<point x="335" y="690"/>
			<point x="253" y="690" type="curve" smooth="yes"/>
			<point x="131" y="690"/>
			<point x="59" y="635"/>
			<point x="59" y="526" type="curve" smooth="yes"/>
			<point x="59" y="438"/>
			<point x="106" y="395"/>
			<point x="194" y="395" type="curve" smooth="yes"/>
			<point x="249" y="395"/>
			<point x="295" y="416"/>
			<point x="312" y="458" type="curve"/>
			<point x="317" y="458" type="line"/>
			<point x="315" y="440"/>
			<point x="315" y="430"/>
			<point x="315" y="414" type="curve" smooth="yes"/>
		</contour>
	</outline>
</glyph>
<glyph name="pes-hmnp" format="2">
	<unicode hex="1E138"/>
	<advance width="411"/>
	<outline>
		<contour>
			<point x="267" y="345" type="line"/>
			<point x="327" y="345" type="line"/>
			<point x="327" y="680" type="line"/>
			<point x="267" y="680" type="line"/>
			<point x="267" y="587"/>
			<point x="225" y="527"/>
			<point x="77" y="527" type="curve" smooth="yes"/>
			<point x="52" y="527" type="line"/>
			<point x="52" y="479"/>
			<point x="67" y="442"/>
			<point x="134" y="442" type="curve" smooth="yes"/>
			<point x="188" y="442"/>
			<point x="243" y="466"/>
			<point x="266" y="533" type="curve"/>
			<point x="271" y="533" type="line"/>
			<point x="268" y="483"/>
			<point x="267" y="444"/>
			<point x="267" y="378" type="curve" smooth="yes"/>
		</contour>
	</outline>
</glyph>
<glyph name="khabTheeb-hmnp" format="2">
	<unicode hex="1E139"/>
	<advance width="411"/>
	<outline>
		<contour>
			<point x="84" y="345" type="line"/>
			<point x="144" y="345" type="line"/>
			<point x="144" y="438"/>
			<point x="186" y="498"/>
			<point x="334" y="498" type="curve" smooth="yes"/>
			<point x="359" y="498" type="line"/>
			<point x="359" y="546"/>
			<point x="344" y="583"/>
			<point x="277" y="583" type="curve" smooth="yes"/>
			<point x="223" y="583"/>
			<point x="168" y="559"/>
			<point x="145" y="492" type="curve"/>
			<point x="140" y="492" type="line"/>
			<point x="143" y="542"/>
			<point x="144" y="581"/>
			<point x="144" y="647" type="curve" smooth="yes"/>
			<point x="144" y="680" type="line"/>
			<point x="84" y="680" type="line"/>
		</contour>
	</outline>
</glyph>
<glyph name="khuamLuas-hmnp" format="2">
	<unicode hex="1E13A"/>
	<advance width="432"/>
	<outline>
		<contour>
			<point x="94" y="337" type="curve" smooth="yes"/>
			<point x="101" y="337"/>
			<point x="107" y="339"/>
			<point x="112" y="342" type="curve"/>
			<point x="109" y="352"/>
			<point x="108" y="365"/>
			<point x="108" y="376" type="curve" smooth="yes"/>
			<point x="108" y="436"/>
			<point x="125" y="465"/>
			<point x="216" y="465" type="curve" smooth="yes"/>
			<point x="307" y="465"/>
			<point x="324" y="436"/>
			<point x="324" y="376" type="curve" smooth="yes"/>
			<point x="324" y="365"/>
			<point x="323" y="352"/>
			<point x="320" y="342" type="curve"/>
			<point x="325" y="339"/>
			<point x="331" y="337"/>
			<point x="338" y="337" type="curve" smooth="yes"/>
			<point x="362" y="337"/>
			<point x="376" y="375"/>
			<point x="376" y="430" type="curve" smooth="yes"/>
			<point x="376" y="511"/>
			<point x="341" y="563"/>
			<point x="216" y="563" type="curve" smooth="yes"/>
			<point x="91" y="563"/>
			<point x="56" y="512"/>
			<point x="56" y="430" type="curve" smooth="yes"/>
			<point x="56" y="375"/>
			<point x="70" y="337"/>
		</contour>
		<contour>
			<point x="186" y="540" type="line"/>
			<point x="246" y="540" type="line"/>
			<point x="246" y="680" type="line"/>
			<point x="186" y="680" type="line"/>
		</contour>
	</outline>
</glyph>
<glyph name="poos-hmnp" format="2">
	<unicode hex="1E13B"/>
	<advance width="447"/>
	<outline>
		<contour>
			<point x="227" y="337" type="curve" smooth="yes"/>
			<point x="327" y="337"/>
			<point x="379" y="372"/>
			<point x="379" y="449" type="curve" smooth="yes"/>
			<point x="379" y="487"/>
			<point x="367" y="522"/>
			<point x="341" y="522" type="curve" smooth="yes"/>
			<point x="335" y="522"/>
			<point x="330" y="520"/>
			<point x="326" y="517" type="curve"/>
			<point x="329" y="506"/>
			<point x="330" y="497"/>
			<point x="330" y="488" type="curve" smooth="yes"/>
			<point x="330" y="447"/>
			<point x="304" y="432"/>
			<point x="228" y="432" type="curve" smooth="yes"/>
			<point x="153" y="432"/>
			<point x="128" y="446"/>
			<point x="128" y="469" type="curve" smooth="yes"/>
			<point x="128" y="487"/>
			<point x="140" y="502"/>
			<point x="162" y="518" type="curve" smooth="yes"/>
			<point x="198" y="544"/>
			<point x="253" y="563"/>
			<point x="371" y="597" type="curve"/>
			<point x="371" y="680" type="line"/>
			<point x="89" y="680" type="line"/>
			<point x="72" y="631" type="line"/>
			<point x="72" y="599" type="line"/>
			<point x="133" y="599" type="line" smooth="yes"/>
			<point x="152" y="599"/>
			<point x="180" y="599"/>
			<point x="219" y="601" type="curve"/>
			<point x="219" y="596" type="line"/>
			<point x="100" y="554"/>
			<point x="68" y="512"/>
			<point x="68" y="450" type="curve" smooth="yes"/>
			<point x="68" y="376"/>
			<point x="113" y="337"/>
		</contour>
	</outline>
</glyph>
<glyph name="khuSaim-hmnp" format="2">
	<unicode hex="1E13D"/>
	<advance width="685"/>
	<outline>
		<contour>
			<point x="84" y="0" type="line"/>
			<point x="355" y="0" type="line"/>
			<point x="355" y="221" type="line" smooth="yes"/>
			<point x="355" y="294"/>
			<point x="373" y="317"/>
			<point x="439" y="317" type="curve" smooth="yes"/>
			<point x="505" y="317"/>
			<point x="523" y="294"/>
			<point x="523" y="221" type="curve" smooth="yes"/>
			<point x="523" y="0" type="line"/>
			<point x="632" y="0" type="line"/>
			<point x="654" y="60" type="line"/>
			<point x="654" y="98" type="line"/>
			<point x="583" y="98" type="line"/>
			<point x="583" y="235" type="line" smooth="yes"/>
			<point x="583" y="364"/>
			<point x="540" y="418"/>
			<point x="439" y="418" type="curve" smooth="yes"/>
			<point x="338" y="418"/>
			<point x="295" y="364"/>
			<point x="295" y="235" type="curve" smooth="yes"/>
			<point x="295" y="98" type="line"/>
			<point x="144" y="98" type="line"/>
			<point x="144" y="680" type="line"/>
			<point x="84" y="680" type="line"/>
		</contour>
	</outline>
</glyph>
<glyph name="zero-hmnp" format="2">
	<unicode hex="1E140"/>
	<advance width="598"/>
	<outline>
		<contour>
			<point x="299" y="-10" type="curve" smooth="yes"/>
			<point x="464" y="-10"/>
			<point x="521" y="46"/>
			<point x="521" y="203" type="curve" smooth="yes"/>
			<point x="521" y="477" type="line" smooth="yes"/>
			<point x="521" y="634"/>
			<point x="464" y="690"/>
			<point x="299" y="690" type="curve" smooth="yes"/>
			<point x="137" y="690"/>
			<point x="77" y="634"/>
			<point x="77" y="477" type="curve" smooth="yes"/>
			<point x="77" y="203" type="line" smooth="yes"/>
			<point x="77" y="46"/>
			<point x="137" y="-10"/>
		</contour>
		<contour>
			<point x="299" y="91" type="curve" smooth="yes"/>
			<point x="175" y="91"/>
			<point x="137" y="118"/>
			<point x="137" y="213" type="curve" smooth="yes"/>
			<point x="137" y="467" type="line" smooth="yes"/>
			<point x="137" y="562"/>
			<point x="175" y="589"/>
			<point x="299" y="589" type="curve" smooth="yes"/>
			<point x="426" y="589"/>
			<point x="461" y="562"/>
			<point x="461" y="467" type="curve" smooth="yes"/>
			<point x="461" y="213" type="line" smooth="yes"/>
			<point x="461" y="118"/>
			<point x="426" y="91"/>
		</contour>
	</outline>
</glyph>
<glyph name="one-hmnp" format="2">
	<unicode hex="1E141"/>
	<advance width="228"/>
	<outline>
		<contour>
			<point x="84" y="0" type="line"/>
			<point x="144" y="0" type="line"/>
			<point x="144" y="680" type="line"/>
			<point x="84" y="680" type="line"/>
		</contour>
	</outline>
</glyph>
<glyph name="two-hmnp" format="2">
	<unicode hex="1E142"/>
	<advance width="467"/>
	<outline>
		<contour>
			<point x="333" y="0" type="line"/>
			<point x="393" y="0" type="line"/>
			<point x="393" y="402" type="line"/>
			<point x="134" y="402" type="line"/>
			<point x="134" y="680" type="line"/>
			<point x="74" y="680" type="line"/>
			<point x="74" y="301" type="line"/>
			<point x="333" y="301" type="line"/>
		</contour>
	</outline>
</glyph>
<glyph name="four-hmnp" format="2">
	<unicode hex="1E144"/>
	<advance width="586"/>
	<outline>
		<contour>
			<point x="299" y="-10" type="curve" smooth="yes"/>
			<point x="448" y="-10"/>
			<point x="504" y="47"/>
			<point x="504" y="200" type="curve" smooth="yes"/>
			<point x="504" y="680" type="line"/>
			<point x="84" y="680" type="line"/>
			<point x="84" y="478" type="line"/>
			<point x="129" y="478" type="line"/>
			<point x="137" y="542" type="line" smooth="yes"/>
			<point x="141" y="575"/>
			<point x="148" y="582"/>
			<point x="178" y="582" type="curve" smooth="yes"/>
			<point x="444" y="582" type="line"/>
			<point x="444" y="214" type="line" smooth="yes"/>
			<point x="444" y="118"/>
			<point x="412" y="91"/>
			<point x="298" y="91" type="curve" smooth="yes"/>
			<point x="173" y="91"/>
			<point x="120" y="113"/>
			<point x="120" y="172" type="curve" smooth="yes"/>
			<point x="120" y="229"/>
			<point x="165" y="250"/>
			<point x="265" y="250" type="curve"/>
			<point x="265" y="306"/>
			<point x="241" y="333"/>
			<point x="191" y="333" type="curve" smooth="yes"/>
			<point x="115" y="333"/>
			<point x="65" y="273"/>
			<point x="65" y="172" type="curve" smooth="yes"/>
			<point x="65" y="42"/>
			<point x="130" y="-10"/>
		</contour>
	</outline>
</glyph>
<glyph name="five-hmnp" format="2">
	<unicode hex="1E145"/>
	<advance width="628"/>
	<outline>
		<contour>
			<point x="282" y="0" type="line"/>
			<point x="345" y="0" type="line"/>
			<point x="495" y="571" type="line"/>
			<point x="598" y="571" type="line"/>
			<point x="598" y="611" type="line"/>
			<point x="579" y="680" type="line"/>
			<point x="460" y="680" type="line"/>
			<point x="317" y="120" type="line"/>
			<point x="312" y="120" type="line"/>
			<point x="170" y="680" type="line"/>
			<point x="49" y="680" type="line"/>
			<point x="30" y="611" type="line"/>
			<point x="30" y="571" type="line"/>
			<point x="133" y="571" type="line"/>
		</contour>
	</outline>
</glyph>
<glyph name="six-hmnp" format="2">
	<unicode hex="1E146"/>
	<advance width="544"/>
	<outline>
		<contour>
			<point x="402" y="0" type="line"/>
			<point x="462" y="0" type="line"/>
			<point x="462" y="491" type="line" smooth="yes"/>
			<point x="462" y="634"/>
			<point x="404" y="690"/>
			<point x="257" y="690" type="curve" smooth="yes"/>
			<point x="119" y="690"/>
			<point x="56" y="641"/>
			<point x="56" y="531" type="curve" smooth="yes"/>
			<point x="56" y="455"/>
			<point x="91" y="405"/>
			<point x="146" y="405" type="curve" smooth="yes"/>
			<point x="186" y="405"/>
			<point x="205" y="431"/>
			<point x="205" y="488" type="curve"/>
			<point x="136" y="488"/>
			<point x="111" y="500"/>
			<point x="111" y="534" type="curve" smooth="yes"/>
			<point x="111" y="574"/>
			<point x="153" y="589"/>
			<point x="256" y="589" type="curve" smooth="yes"/>
			<point x="376" y="589"/>
			<point x="402" y="569"/>
			<point x="402" y="483" type="curve" smooth="yes"/>
			<point x="402" y="272" type="line" smooth="yes"/>
			<point x="402" y="186"/>
			<point x="402" y="182"/>
			<point x="405" y="151" type="curve"/>
			<point x="400" y="151" type="line"/>
			<point x="378" y="227"/>
			<point x="279" y="288"/>
			<point x="158" y="288" type="curve" smooth="yes"/>
			<point x="81" y="288"/>
			<point x="56" y="263"/>
			<point x="56" y="187" type="curve"/>
			<point x="82" y="187" type="line" smooth="yes"/>
			<point x="316" y="187"/>
			<point x="402" y="141"/>
			<point x="402" y="17" type="curve" smooth="yes"/>
		</contour>
	</outline>
</glyph>
<glyph name="seven-hmnp" format="2">
	<unicode hex="1E147"/>
	<advance width="601"/>
	<outline>
		<contour>
			<point x="317" y="-10" type="curve" smooth="yes"/>
			<point x="475" y="-10"/>
			<point x="544" y="48"/>
			<point x="544" y="187" type="curve" smooth="yes"/>
			<point x="544" y="289"/>
			<point x="508" y="347"/>
			<point x="419" y="372" type="curve"/>
			<point x="419" y="378" type="line"/>
			<point x="488" y="403"/>
			<point x="521" y="451"/>
			<point x="521" y="531" type="curve" smooth="yes"/>
			<point x="521" y="630"/>
			<point x="471" y="690"/>
			<point x="387" y="690" type="curve" smooth="yes"/>
			<point x="325" y="690"/>
			<point x="296" y="658"/>
			<point x="296" y="591" type="curve"/>
			<point x="418" y="591"/>
			<point x="461" y="571"/>
			<point x="461" y="516" type="curve" smooth="yes"/>
			<point x="461" y="460"/>
			<point x="413" y="425"/>
			<point x="304" y="403" type="curve"/>
			<point x="304" y="299" type="line"/>
			<point x="438" y="284"/>
			<point x="485" y="256"/>
			<point x="485" y="185" type="curve" smooth="yes"/>
			<point x="485" y="116"/>
			<point x="441" y="91"/>
			<point x="315" y="91" type="curve" smooth="yes"/>
			<point x="182" y="91"/>
			<point x="142" y="119"/>
			<point x="142" y="209" type="curve" smooth="yes"/>
			<point x="142" y="680" type="line"/>
			<point x="82" y="680" type="line"/>
			<point x="82" y="202" type="line" smooth="yes"/>
			<point x="82" y="49"/>
			<point x="141" y="-10"/>
		</contour>
	</outline>
</glyph>
<glyph name="eight-hmnp" format="2">
	<unicode hex="1E148"/>
	<advance width="576"/>
	<outline>
		<contour>
			<point x="317" y="-10" type="curve" smooth="yes"/>
			<point x="439" y="-10"/>
			<point x="492" y="31"/>
			<point x="492" y="133" type="curve" smooth="yes"/>
			<point x="492" y="207"/>
			<point x="464" y="252"/>
			<point x="418" y="252" type="curve" smooth="yes"/>
			<point x="378" y="252"/>
			<point x="357" y="222"/>
			<point x="357" y="169" type="curve"/>
			<point x="417" y="169"/>
			<point x="437" y="161"/>
			<point x="437" y="135" type="curve" smooth="yes"/>
			<point x="437" y="104"/>
			<point x="409" y="91"/>
			<point x="315" y="91" type="curve" smooth="yes"/>
			<point x="213" y="91"/>
			<point x="183" y="110"/>
			<point x="183" y="170" type="curve" smooth="yes"/>
			<point x="183" y="254"/>
			<point x="247" y="304"/>
			<point x="398" y="332" type="curve"/>
			<point x="398" y="414" type="line"/>
			<point x="315" y="414" type="line" smooth="yes"/>
			<point x="157" y="414"/>
			<point x="115" y="433"/>
			<point x="115" y="501" type="curve" smooth="yes"/>
			<point x="115" y="569"/>
			<point x="155" y="589"/>
			<point x="298" y="589" type="curve" smooth="yes"/>
			<point x="435" y="589"/>
			<point x="473" y="571"/>
			<point x="473" y="512" type="curve" smooth="yes"/>
			<point x="473" y="498"/>
			<point x="471" y="484"/>
			<point x="467" y="470" type="curve"/>
			<point x="471" y="468"/>
			<point x="477" y="466"/>
			<point x="483" y="466" type="curve" smooth="yes"/>
			<point x="510" y="466"/>
			<point x="528" y="502"/>
			<point x="528" y="551" type="curve" smooth="yes"/>
			<point x="528" y="647"/>
			<point x="456" y="690"/>
			<point x="296" y="690" type="curve" smooth="yes"/>
			<point x="122" y="690"/>
			<point x="55" y="639"/>
			<point x="55" y="509" type="curve" smooth="yes"/>
			<point x="55" y="404"/>
			<point x="99" y="349"/>
			<point x="219" y="331" type="curve"/>
			<point x="219" y="327" type="line"/>
			<point x="155" y="290"/>
			<point x="121" y="232"/>
			<point x="121" y="151" type="curve" smooth="yes"/>
			<point x="121" y="42"/>
			<point x="176" y="-10"/>
		</contour>
	</outline>
</glyph>
<glyph name="nine-hmnp" format="2">
	<unicode hex="1E149"/>
	<advance width="635"/>
	<outline>
		<contour>
			<point x="403" y="0" type="curve"/>
			<point x="470" y="0" type="line"/>
			<point x="602" y="680" type="line"/>
			<point x="541" y="680" type="line"/>
			<point x="431" y="112" type="line"/>
			<point x="427" y="110" type="line"/>
			<point x="329" y="182"/>
			<point x="258" y="220"/>
			<point x="182" y="252" type="curve"/>
			<point x="182" y="257" type="line"/>
			<point x="308" y="302"/>
			<point x="362" y="374"/>
			<point x="362" y="505" type="curve" smooth="yes"/>
			<point x="362" y="630"/>
			<point x="312" y="690"/>
			<point x="207" y="690" type="curve" smooth="yes"/>
			<point x="111" y="690"/>
			<point x="58" y="638"/>
			<point x="58" y="540" type="curve" smooth="yes"/>
			<point x="58" y="461"/>
			<point x="92" y="412"/>
			<point x="144" y="412" type="curve" smooth="yes"/>
			<point x="182" y="412"/>
			<point x="203" y="442"/>
			<point x="203" y="495" type="curve"/>
			<point x="138" y="495"/>
			<point x="113" y="505"/>
			<point x="113" y="539" type="curve" smooth="yes"/>
			<point x="113" y="573"/>
			<point x="136" y="589"/>
			<point x="204" y="589" type="curve" smooth="yes"/>
			<point x="281" y="589"/>
			<point x="302" y="568"/>
			<point x="302" y="499" type="curve" smooth="yes"/>
			<point x="302" y="386"/>
			<point x="243" y="330"/>
			<point x="79" y="282" type="curve"/>
			<point x="79" y="190" type="line"/>
			<point x="191" y="148"/>
			<point x="290" y="93"/>
		</contour>
	</outline>
</glyph>
<glyph name="circledCa-hmnp" format="2">
	<unicode hex="1E14F"/>
	<advance width="810"/>
	<outline>
		<contour>
			<point x="405" y="-10" type="curve" smooth="yes"/>
			<point x="613" y="-10"/>
			<point x="750" y="131"/>
			<point x="750" y="345" type="curve" smooth="yes"/>
			<point x="750" y="559"/>
			<point x="613" y="700"/>
			<point x="405" y="700" type="curve" smooth="yes"/>
			<point x="197" y="700"/>
			<point x="60" y="559"/>
			<point x="60" y="345" type="curve" smooth="yes"/>
			<point x="60" y="131"/>
			<point x="197" y="-10"/>
		</contour>
		<contour>
			<point x="345" y="138" type="curve" smooth="yes"/>
			<point x="420" y="138"/>
			<point x="446" y="175"/>
			<point x="446" y="286" type="curve" smooth="yes"/>
			<point x="446" y="395"/>
			<point x="419" y="435"/>
			<point x="346" y="435" type="curve" smooth="yes"/>
			<point x="293" y="435" type="line"/>
			<point x="293" y="542" type="line"/>
			<point x="253" y="542" type="line"/>
			<point x="253" y="357" type="line"/>
			<point x="347" y="357" type="line" smooth="yes"/>
			<point x="394" y="357"/>
			<point x="406" y="343"/>
			<point x="406" y="283" type="curve" smooth="yes"/>
			<point x="406" y="227"/>
			<point x="396" y="216"/>
			<point x="346" y="216" type="curve" smooth="yes"/>
			<point x="293" y="216"/>
			<point x="279" y="222"/>
			<point x="279" y="242" type="curve" smooth="yes"/>
			<point x="279" y="260"/>
			<point x="291" y="266"/>
			<point x="334" y="266" type="curve"/>
			<point x="334" y="303"/>
			<point x="322" y="321"/>
			<point x="297" y="321" type="curve" smooth="yes"/>
			<point x="263" y="321"/>
			<point x="243" y="292"/>
			<point x="243" y="239" type="curve" smooth="yes"/>
			<point x="243" y="170"/>
			<point x="274" y="138"/>
		</contour>
		<contour>
			<point x="405" y="50" type="curve" smooth="yes"/>
			<point x="231" y="50"/>
			<point x="119" y="166"/>
			<point x="119" y="345" type="curve" smooth="yes"/>
			<point x="119" y="524"/>
			<point x="231" y="640"/>
			<point x="405" y="640" type="curve" smooth="yes"/>
			<point x="579" y="640"/>
			<point x="691" y="524"/>
			<point x="691" y="345" type="curve" smooth="yes"/>
			<point x="691" y="166"/>
			<point x="579" y="50"/>
		</contour>
		<contour>
			<point x="519" y="143" type="line"/>
			<point x="559" y="143" type="line"/>
			<point x="559" y="439" type="line" smooth="yes"/>
			<point x="559" y="522"/>
			<point x="531" y="556"/>
			<point x="463" y="556" type="curve" smooth="yes"/>
			<point x="396" y="556"/>
			<point x="370" y="524"/>
			<point x="370" y="439" type="curve" smooth="yes"/>
			<point x="370" y="392" type="line"/>
			<point x="407" y="392" type="line"/>
			<point x="407" y="434" type="line" smooth="yes"/>
			<point x="407" y="466"/>
			<point x="423" y="478"/>
			<point x="462" y="478" type="curve" smooth="yes"/>
			<point x="504" y="478"/>
			<point x="519" y="464"/>
			<point x="519" y="426" type="curve" smooth="yes"/>
		</contour>
	</outline>
</glyph>
